ffmpeg started on 2025-06-16 at 17:05:32
Report written to "D:\Convert\FFMetrics\reports\psnr_report-6.txt"
Log level: 32
Command line:
ffmpeg -hide_banner -nostdin -i "G:\\\xc0\xed\xe8\xec\xe5\\[\xd2\xee\xef]\\\xd0\xfb\xf6\xe0\xf0\xfc-\xe2\xe0\xec\xef\xe8\xf0\\\xd2\xc2-2\\[JamClub] Vampire Knight Guilty - 09_HEVC.mkv" -i "G:\\\xc0\xed\xe8\xec\xe5\\[\xd2\xee\xef]\\\xd0\xfb\xf6\xe0\xf0\xfc-\xe2\xe0\xec\xef\xe8\xf0\\\xd2\xc2-2\\[JamClub] Vampire Knight Guilty - 09.mp4" -lavfi "[0:v]settb=AVTB,setpts=PTS-STARTPTS,format=pix_fmts=yuv420p10,fps=24000/1001,scale=1920:1080:flags=bicubic[main];[1:v]settb=AVTB,setpts=PTS-STARTPTS,format=pix_fmts=yuv420p,fps=24000/1001,scale=1920:1080:flags=bicubic[ref];[main][ref]psnr=eof_action=endall:stats_file='D\\:/Convert/FFMetrics/logs/psnr_logfile-6.txt'" -f null -
Input #0, matroska,webm, from 'G:\Аниме\[Топ]\Рыцарь-вампир\ТВ-2\[JamClub] Vampire Knight Guilty - 09_HEVC.mkv':
  Metadata:
    COMPATIBLE_BRANDS: isomiso2avc1mp41
    MAJOR_BRAND     : isom
    MINOR_VERSION   : 512
    ENCODER         : Lavf61.7.100
  Duration: 00:24:22.91, start: -0.001000, bitrate: 1090 kb/s
  Stream #0:0: Video: hevc (Main 10), yuv420p10le(tv, bt709, progressive), 1920x1080 [SAR 1:1 DAR 16:9], 23.98 fps, 23.98 tbr, 1k tbn (default)
      Metadata:
        HANDLER_NAME    : VideoHandler
        VENDOR_ID       : [0][0][0][0]
        ENCODER         : Lavc61.19.100 libx265
        BPS             : 891084
        DURATION        : 00:24:22.836708333
        NUMBER_OF_FRAMES: 43708
        NUMBER_OF_BYTES : 162938850
        _STATISTICS_WRITING_APP: mkvpropedit v66.0.0 ('Josie') 64-bit
        _STATISTICS_WRITING_DATE_UTC: 2025-06-16 11:57:44
        _STATISTICS_TAGS: BPS DURATION NUMBER_OF_FRAMES NUMBER_OF_BYTES
  Stream #0:1(eng): Audio: aac (LC), 48000 Hz, stereo, fltp (default)
      Metadata:
        HANDLER_NAME    : SoundHandler
        VENDOR_ID       : [0][0][0][0]
        ENCODER         : Lavc61.19.100 aac
        BPS             : 195377
        DURATION        : 00:24:22.864000000
        NUMBER_OF_FRAMES: 68573
        NUMBER_OF_BYTES : 35726333
        _STATISTICS_WRITING_APP: mkvpropedit v66.0.0 ('Josie') 64-bit
        _STATISTICS_WRITING_DATE_UTC: 2025-06-16 11:57:44
        _STATISTICS_TAGS: BPS DURATION NUMBER_OF_FRAMES NUMBER_OF_BYTES
Input #1, mov,mp4,m4a,3gp,3g2,mj2, from 'G:\Аниме\[Топ]\Рыцарь-вампир\ТВ-2\[JamClub] Vampire Knight Guilty - 09.mp4':
  Metadata:
    major_brand     : isom
    minor_version   : 512
    compatible_brands: isomiso2avc1mp41
    encoder         : Lavf60.16.100
  Duration: 00:24:22.88, start: 0.000000, bitrate: 3907 kb/s
  Stream #1:0[0x1](und): Video: h264 (High) (avc1 / 0x31637661), yuv420p(progressive), 1920x1080 [SAR 1:1 DAR 16:9], 3707 kb/s, 29.88 fps, 23.98 tbr, 90k tbn (default)
      Metadata:
        handler_name    : VideoHandler
        vendor_id       : [0][0][0][0]
  Stream #1:1[0x2](eng): Audio: aac (LC) (mp4a / 0x6134706D), 48000 Hz, stereo, fltp, 191 kb/s (default)
      Metadata:
        handler_name    : SoundHandler
        vendor_id       : [0][0][0][0]
Stream mapping:
  Stream #0:0 (hevc) -> settb:default
  Stream #1:0 (h264) -> settb:default
  psnr:default -> Stream #0:0 (wrapped_avframe)
  Stream #0:1 -> #0:1 (aac (native) -> pcm_s16le (native))
Output #0, null, to 'pipe:':
  Metadata:
    COMPATIBLE_BRANDS: isomiso2avc1mp41
    MAJOR_BRAND     : isom
    MINOR_VERSION   : 512
    encoder         : Lavf61.7.100
  Stream #0:0: Video: wrapped_avframe, yuv420p10le(tv, bt709, progressive), 1920x1080 [SAR 1:1 DAR 16:9], q=2-31, 200 kb/s, 23.98 fps, 23.98 tbn
      Metadata:
        encoder         : Lavc61.19.100 wrapped_avframe
  Stream #0:1(eng): Audio: pcm_s16le, 48000 Hz, stereo, s16, 1536 kb/s (default)
      Metadata:
        HANDLER_NAME    : SoundHandler
        VENDOR_ID       : [0][0][0][0]
        _STATISTICS_TAGS: BPS DURATION NUMBER_OF_FRAMES NUMBER_OF_BYTES
        BPS             : 195377
        DURATION        : 00:24:22.864000000
        NUMBER_OF_FRAMES: 68573
        NUMBER_OF_BYTES : 35726333
        _STATISTICS_WRITING_APP: mkvpropedit v66.0.0 ('Josie') 64-bit
        _STATISTICS_WRITING_DATE_UTC: 2025-06-16 11:57:44
        encoder         : Lavc61.19.100 pcm_s16le
frame=  111 fps=0.0 q=-0.0 size=N/A time=00:00:04.62 bitrate=N/A speed=9.03x    frame=  277 fps=266 q=-0.0 size=N/A time=00:00:11.55 bitrate=N/A speed=11.1x    frame=  481 fps=310 q=-0.0 size=N/A time=00:00:20.06 bitrate=N/A speed=12.9x    frame=  724 fps=351 q=-0.0 size=N/A time=00:00:30.19 bitrate=N/A speed=14.7x    frame=  968 fps=374 q=-0.0 size=N/A time=00:00:40.37 bitrate=N/A speed=15.6x    frame= 1192 fps=385 q=-0.0 size=N/A time=00:00:49.71 bitrate=N/A speed=16.1x    frame= 1381 fps=383 q=-0.0 size=N/A time=00:00:57.59 bitrate=N/A speed=  16x    frame= 1617 fps=391 q=-0.0 size=N/A time=00:01:07.44 bitrate=N/A speed=16.3x    frame= 1852 fps=399 q=-0.0 size=N/A time=00:01:17.24 bitrate=N/A speed=16.6x    frame= 2074 fps=402 q=-0.0 size=N/A time=00:01:26.50 bitrate=N/A speed=16.8x    frame= 2296 fps=404 q=-0.0 size=N/A time=00:01:35.76 bitrate=N/A speed=16.9x    frame= 2497 fps=403 q=-0.0 size=N/A time=00:01:44.14 bitrate=N/A speed=16.8x    frame= 2693 fps=401 q=-0.0 size=N/A time=00:01:52.32 bitrate=N/A speed=16.7x    frame= 2892 fps=401 q=-0.0 size=N/A time=00:02:00.62 bitrate=N/A speed=16.7x    frame= 3117 fps=402 q=-0.0 size=N/A time=00:02:10.00 bitrate=N/A speed=16.8x    frame= 3325 fps=403 q=-0.0 size=N/A time=00:02:18.68 bitrate=N/A speed=16.8x    frame= 3517 fps=401 q=-0.0 size=N/A time=00:02:26.68 bitrate=N/A speed=16.7x    frame= 3690 fps=397 q=-0.0 size=N/A time=00:02:33.90 bitrate=N/A speed=16.6x    frame= 3920 fps=399 q=-0.0 size=N/A time=00:02:43.49 bitrate=N/A speed=16.6x    frame= 4145 fps=401 q=-0.0 size=N/A time=00:02:52.88 bitrate=N/A speed=16.7x    frame= 4386 fps=405 q=-0.0 size=N/A time=00:03:02.93 bitrate=N/A speed=16.9x    frame= 4631 fps=407 q=-0.0 size=N/A time=00:03:13.15 bitrate=N/A speed=  17x    frame= 4835 fps=407 q=-0.0 size=N/A time=00:03:21.65 bitrate=N/A speed=  17x    frame= 5083 fps=410 q=-0.0 size=N/A time=00:03:32.00 bitrate=N/A speed=17.1x    frame= 5322 fps=412 q=-0.0 size=N/A time=00:03:41.97 bitrate=N/A speed=17.2x    frame= 5553 fps=414 q=-0.0 size=N/A time=00:03:51.60 bitrate=N/A speed=17.3x    frame= 5789 fps=415 q=-0.0 size=N/A time=00:04:01.44 bitrate=N/A speed=17.3x    frame= 6007 fps=416 q=-0.0 size=N/A time=00:04:10.54 bitrate=N/A speed=17.3x    frame= 6230 fps=416 q=-0.0 size=N/A time=00:04:19.84 bitrate=N/A speed=17.4x    frame= 6458 fps=417 q=-0.0 size=N/A time=00:04:29.35 bitrate=N/A speed=17.4x    frame= 6691 fps=418 q=-0.0 size=N/A time=00:04:39.07 bitrate=N/A speed=17.4x    frame= 6932 fps=420 q=-0.0 size=N/A time=00:04:49.12 bitrate=N/A speed=17.5x    frame= 7180 fps=421 q=-0.0 size=N/A time=00:04:59.46 bitrate=N/A speed=17.6x    frame= 7427 fps=423 q=-0.0 size=N/A time=00:05:09.76 bitrate=N/A speed=17.7x    frame= 7689 fps=425 q=-0.0 size=N/A time=00:05:20.69 bitrate=N/A speed=17.7x    frame= 7926 fps=426 q=-0.0 size=N/A time=00:05:30.58 bitrate=N/A speed=17.8x    frame= 8169 fps=427 q=-0.0 size=N/A time=00:05:40.71 bitrate=N/A speed=17.8x    frame= 8391 fps=428 q=-0.0 size=N/A time=00:05:49.97 bitrate=N/A speed=17.8x    frame= 8624 fps=428 q=-0.0 size=N/A time=00:05:59.69 bitrate=N/A speed=17.9x    frame= 8862 fps=429 q=-0.0 size=N/A time=00:06:09.61 bitrate=N/A speed=17.9x    frame= 9097 fps=430 q=-0.0 size=N/A time=00:06:19.42 bitrate=N/A speed=17.9x    frame= 9339 fps=431 q=-0.0 size=N/A time=00:06:29.51 bitrate=N/A speed=  18x    frame= 9575 fps=431 q=-0.0 size=N/A time=00:06:39.35 bitrate=N/A speed=  18x    frame= 9809 fps=432 q=-0.0 size=N/A time=00:06:49.11 bitrate=N/A speed=  18x    frame=10043 fps=432 q=-0.0 size=N/A time=00:06:58.87 bitrate=N/A speed=  18x    frame=10282 fps=433 q=-0.0 size=N/A time=00:07:08.84 bitrate=N/A speed=  18x    frame=10510 fps=433 q=-0.0 size=N/A time=00:07:18.35 bitrate=N/A speed=18.1x    frame=10753 fps=434 q=-0.0 size=N/A time=00:07:28.48 bitrate=N/A speed=18.1x    frame=10993 fps=434 q=-0.0 size=N/A time=00:07:38.49 bitrate=N/A speed=18.1x    frame=11216 fps=434 q=-0.0 size=N/A time=00:07:47.80 bitrate=N/A speed=18.1x    frame=11443 fps=435 q=-0.0 size=N/A time=00:07:57.26 bitrate=N/A speed=18.1x    frame=11702 fps=436 q=-0.0 size=N/A time=00:08:08.07 bitrate=N/A speed=18.2x    frame=11916 fps=435 q=-0.0 size=N/A time=00:08:16.99 bitrate=N/A speed=18.2x    frame=12130 fps=435 q=-0.0 size=N/A time=00:08:25.92 bitrate=N/A speed=18.1x    frame=12354 fps=435 q=-0.0 size=N/A time=00:08:35.26 bitrate=N/A speed=18.1x    frame=12588 fps=435 q=-0.0 size=N/A time=00:08:45.02 bitrate=N/A speed=18.2x    frame=12836 fps=436 q=-0.0 size=N/A time=00:08:55.36 bitrate=N/A speed=18.2x    frame=13081 fps=437 q=-0.0 size=N/A time=00:09:05.58 bitrate=N/A speed=18.2x    frame=13326 fps=438 q=-0.0 size=N/A time=00:09:15.80 bitrate=N/A speed=18.2x    frame=13539 fps=437 q=-0.0 size=N/A time=00:09:24.68 bitrate=N/A speed=18.2x    frame=13765 fps=437 q=-0.0 size=N/A time=00:09:34.11 bitrate=N/A speed=18.2x    frame=13998 fps=437 q=-0.0 size=N/A time=00:09:43.83 bitrate=N/A speed=18.2x    frame=14221 fps=437 q=-0.0 size=N/A time=00:09:53.13 bitrate=N/A speed=18.2x    frame=14465 fps=438 q=-0.0 size=N/A time=00:10:03.31 bitrate=N/A speed=18.3x    frame=14706 fps=438 q=-0.0 size=N/A time=00:10:13.36 bitrate=N/A speed=18.3x    frame=14934 fps=438 q=-0.0 size=N/A time=00:10:22.87 bitrate=N/A speed=18.3x    frame=15172 fps=439 q=-0.0 size=N/A time=00:10:32.79 bitrate=N/A speed=18.3x    frame=15375 fps=438 q=-0.0 size=N/A time=00:10:41.26 bitrate=N/A speed=18.3x    frame=15557 fps=437 q=-0.0 size=N/A time=00:10:48.85 bitrate=N/A speed=18.2x    frame=15767 fps=436 q=-0.0 size=N/A time=00:10:57.61 bitrate=N/A speed=18.2x    frame=15983 fps=436 q=-0.0 size=N/A time=00:11:06.62 bitrate=N/A speed=18.2x    frame=16164 fps=435 q=-0.0 size=N/A time=00:11:14.17 bitrate=N/A speed=18.1x    frame=16350 fps=434 q=-0.0 size=N/A time=00:11:21.93 bitrate=N/A speed=18.1x    frame=16554 fps=433 q=-0.0 size=N/A time=00:11:30.43 bitrate=N/A speed=18.1x    frame=16753 fps=433 q=-0.0 size=N/A time=00:11:38.73 bitrate=N/A speed=18.1x    frame=16965 fps=433 q=-0.0 size=N/A time=00:11:47.58 bitrate=N/A speed=  18x    frame=17200 fps=433 q=-0.0 size=N/A time=00:11:57.38 bitrate=N/A speed=  18x    frame=17371 fps=431 q=-0.0 size=N/A time=00:12:04.51 bitrate=N/A speed=  18x    frame=17548 fps=430 q=-0.0 size=N/A time=00:12:11.89 bitrate=N/A speed=17.9x    frame=17743 fps=430 q=-0.0 size=N/A time=00:12:20.03 bitrate=N/A speed=17.9x    frame=17966 fps=430 q=-0.0 size=N/A time=00:12:29.33 bitrate=N/A speed=17.9x    frame=18181 fps=429 q=-0.0 size=N/A time=00:12:38.29 bitrate=N/A speed=17.9x    frame=18415 fps=430 q=-0.0 size=N/A time=00:12:48.05 bitrate=N/A speed=17.9x    frame=18649 fps=430 q=-0.0 size=N/A time=00:12:57.81 bitrate=N/A speed=17.9x    frame=18866 fps=430 q=-0.0 size=N/A time=00:13:06.86 bitrate=N/A speed=17.9x    frame=19073 fps=430 q=-0.0 size=N/A time=00:13:15.50 bitrate=N/A speed=17.9x    frame=19293 fps=430 q=-0.0 size=N/A time=00:13:24.67 bitrate=N/A speed=17.9x    frame=19517 fps=430 q=-0.0 size=N/A time=00:13:34.02 bitrate=N/A speed=17.9x    frame=19735 fps=430 q=-0.0 size=N/A time=00:13:43.11 bitrate=N/A speed=17.9x    frame=19940 fps=429 q=-0.0 size=N/A time=00:13:51.66 bitrate=N/A speed=17.9x    frame=20141 fps=429 q=-0.0 size=N/A time=00:14:00.04 bitrate=N/A speed=17.9x    frame=20384 fps=429 q=-0.0 size=N/A time=00:14:10.18 bitrate=N/A speed=17.9x    frame=20627 fps=430 q=-0.0 size=N/A time=00:14:20.31 bitrate=N/A speed=17.9x    frame=20819 fps=429 q=-0.0 size=N/A time=00:14:28.32 bitrate=N/A speed=17.9x    frame=21034 fps=429 q=-0.0 size=N/A time=00:14:37.29 bitrate=N/A speed=17.9x    frame=21257 fps=429 q=-0.0 size=N/A time=00:14:46.59 bitrate=N/A speed=17.9x    frame=21481 fps=429 q=-0.0 size=N/A time=00:14:55.93 bitrate=N/A speed=17.9x    frame=21703 fps=429 q=-0.0 size=N/A time=00:15:05.19 bitrate=N/A speed=17.9x    frame=21914 fps=429 q=-0.0 size=N/A time=00:15:13.99 bitrate=N/A speed=17.9x    frame=22132 fps=429 q=-0.0 size=N/A time=00:15:23.08 bitrate=N/A speed=17.9x    frame=22347 fps=429 q=-0.0 size=N/A time=00:15:32.05 bitrate=N/A speed=17.9x    frame=22586 fps=429 q=-0.0 size=N/A time=00:15:42.02 bitrate=N/A speed=17.9x    frame=22797 fps=429 q=-0.0 size=N/A time=00:15:50.82 bitrate=N/A speed=17.9x    frame=23017 fps=429 q=-0.0 size=N/A time=00:16:00.00 bitrate=N/A speed=17.9x    frame=23242 fps=429 q=-0.0 size=N/A time=00:16:09.38 bitrate=N/A speed=17.9x    frame=23473 fps=429 q=-0.0 size=N/A time=00:16:19.01 bitrate=N/A speed=17.9x    frame=23696 fps=429 q=-0.0 size=N/A time=00:16:28.32 bitrate=N/A speed=17.9x    frame=23913 fps=429 q=-0.0 size=N/A time=00:16:37.37 bitrate=N/A speed=17.9x    frame=24127 fps=429 q=-0.0 size=N/A time=00:16:46.29 bitrate=N/A speed=17.9x    frame=24371 fps=429 q=-0.0 size=N/A time=00:16:56.47 bitrate=N/A speed=17.9x    frame=24598 fps=429 q=-0.0 size=N/A time=00:17:05.94 bitrate=N/A speed=17.9x    frame=24813 fps=429 q=-0.0 size=N/A time=00:17:14.90 bitrate=N/A speed=17.9x    frame=25021 fps=429 q=-0.0 size=N/A time=00:17:23.58 bitrate=N/A speed=17.9x    frame=25274 fps=429 q=-0.0 size=N/A time=00:17:34.13 bitrate=N/A speed=17.9x    frame=25525 fps=430 q=-0.0 size=N/A time=00:17:44.60 bitrate=N/A speed=17.9x    frame=25762 fps=430 q=-0.0 size=N/A time=00:17:54.49 bitrate=N/A speed=17.9x    frame=26013 fps=431 q=-0.0 size=N/A time=00:18:04.95 bitrate=N/A speed=  18x    frame=26256 fps=431 q=-0.0 size=N/A time=00:18:15.09 bitrate=N/A speed=  18x    frame=26505 fps=432 q=-0.0 size=N/A time=00:18:25.47 bitrate=N/A speed=  18x    frame=26748 fps=432 q=-0.0 size=N/A time=00:18:35.61 bitrate=N/A speed=  18x    frame=26986 fps=432 q=-0.0 size=N/A time=00:18:45.54 bitrate=N/A speed=  18x    frame=27222 fps=432 q=-0.0 size=N/A time=00:18:55.38 bitrate=N/A speed=  18x    frame=27450 fps=432 q=-0.0 size=N/A time=00:19:04.89 bitrate=N/A speed=  18x    frame=27687 fps=432 q=-0.0 size=N/A time=00:19:14.77 bitrate=N/A speed=  18x    frame=27921 fps=433 q=-0.0 size=N/A time=00:19:24.53 bitrate=N/A speed=  18x    frame=28169 fps=433 q=-0.0 size=N/A time=00:19:34.88 bitrate=N/A speed=18.1x    frame=28420 fps=433 q=-0.0 size=N/A time=00:19:45.35 bitrate=N/A speed=18.1x    frame=28669 fps=434 q=-0.0 size=N/A time=00:19:55.73 bitrate=N/A speed=18.1x    frame=28917 fps=434 q=-0.0 size=N/A time=00:20:06.07 bitrate=N/A speed=18.1x    frame=29177 fps=435 q=-0.0 size=N/A time=00:20:16.92 bitrate=N/A speed=18.1x    frame=29412 fps=435 q=-0.0 size=N/A time=00:20:26.76 bitrate=N/A speed=18.1x    frame=29658 fps=435 q=-0.0 size=N/A time=00:20:36.98 bitrate=N/A speed=18.2x    frame=29870 fps=435 q=-0.0 size=N/A time=00:20:45.82 bitrate=N/A speed=18.1x    frame=30093 fps=435 q=-0.0 size=N/A time=00:20:55.12 bitrate=N/A speed=18.1x    frame=30328 fps=435 q=-0.0 size=N/A time=00:21:04.93 bitrate=N/A speed=18.1x    frame=30559 fps=435 q=-0.0 size=N/A time=00:21:14.56 bitrate=N/A speed=18.1x    frame=30787 fps=435 q=-0.0 size=N/A time=00:21:24.07 bitrate=N/A speed=18.2x    frame=31036 fps=435 q=-0.0 size=N/A time=00:21:34.45 bitrate=N/A speed=18.2x    frame=31282 fps=436 q=-0.0 size=N/A time=00:21:44.72 bitrate=N/A speed=18.2x    frame=31519 fps=436 q=-0.0 size=N/A time=00:21:54.60 bitrate=N/A speed=18.2x    frame=31759 fps=436 q=-0.0 size=N/A time=00:22:04.61 bitrate=N/A speed=18.2x    frame=31988 fps=436 q=-0.0 size=N/A time=00:22:14.16 bitrate=N/A speed=18.2x    frame=32214 fps=436 q=-0.0 size=N/A time=00:22:23.59 bitrate=N/A speed=18.2x    frame=32428 fps=436 q=-0.0 size=N/A time=00:22:32.51 bitrate=N/A speed=18.2x    frame=32661 fps=436 q=-0.0 size=N/A time=00:22:42.23 bitrate=N/A speed=18.2x    frame=32887 fps=436 q=-0.0 size=N/A time=00:22:51.66 bitrate=N/A speed=18.2x    frame=33102 fps=436 q=-0.0 size=N/A time=00:23:00.62 bitrate=N/A speed=18.2x    frame=33300 fps=436 q=-0.0 size=N/A time=00:23:08.88 bitrate=N/A speed=18.2x    frame=33505 fps=435 q=-0.0 size=N/A time=00:23:17.43 bitrate=N/A speed=18.2x    frame=33705 fps=435 q=-0.0 size=N/A time=00:23:25.77 bitrate=N/A speed=18.1x    frame=33917 fps=435 q=-0.0 size=N/A time=00:23:34.62 bitrate=N/A speed=18.1x    frame=34130 fps=435 q=-0.0 size=N/A time=00:23:43.50 bitrate=N/A speed=18.1x    frame=34361 fps=435 q=-0.0 size=N/A time=00:23:53.14 bitrate=N/A speed=18.1x    frame=34567 fps=435 q=-0.0 size=N/A time=00:24:01.73 bitrate=N/A speed=18.1x    frame=34753 fps=434 q=-0.0 size=N/A time=00:24:09.48 bitrate=N/A speed=18.1x    frame=34969 fps=434 q=-0.0 size=N/A time=00:24:18.49 bitrate=N/A speed=18.1x    [Parsed_psnr_10 @ 000001c07f559a80] PSNR y:50.207895 u:52.656241 v:53.220196 average:50.940323 min:32.107336 max:inf
[out#0/null @ 000001c078914280] video:15070KiB audio:274292KiB subtitle:0KiB other streams:0KiB global headers:0KiB muxing overhead: unknown
frame=35073 fps=434 q=-0.0 Lsize=N/A time=00:24:22.83 bitrate=N/A speed=18.1x    
